<svg width="25" height="42" viewBox="0 0 25 42" fill="none" xmlns="http://www.w3.org/2000/svg">
    <path d="M1.54063 1.1125C0.954779 1.69852 0.625668 2.49324 0.625668 3.32187C0.625668 4.15051 0.954779 4.94523 1.54063 5.53125L17.0094 21L1.54063 36.4688C0.971382 37.0581 0.656398 37.8475 0.663518 38.6669C0.670638 39.4862 0.999292 40.27 1.57869 40.8494C2.15809 41.4288 2.94188 41.7575 3.76125 41.7646C4.58061 41.7717 5.36999 41.4567 5.95937 40.8875L23.6375 23.2094C24.2233 22.6234 24.5525 21.8286 24.5525 21C24.5525 20.1714 24.2233 19.3767 23.6375 18.7906L5.95937 1.1125C5.37335 0.526653 4.57864 0.197542 3.75 0.197542C2.92136 0.197542 2.12665 0.526653 1.54063 1.1125Z" fill="#901C1C"/>
</svg>
