<svg width="50" height="50" viewBox="0 0 50 50" fill="none" xmlns="http://www.w3.org/2000/svg">
    <g clip-path="url(#clip0_3_2)">
        <path d="M49.5438 40.1688L34.375 25L49.5438 9.83125C49.8344 9.53704 49.9974 9.14013 49.9974 8.72656C49.9974 8.31299 49.8344 7.91609 49.5438 7.62187L42.3781 0.45625C42.0851 0.163327 41.6878 -0.00122833 41.2734 -0.00122833C40.8591 -0.00122833 40.4618 0.163327 40.1688 0.45625L25 15.625L9.83126 0.45625C9.53825 0.163327 9.14089 -0.00122833 8.72657 -0.00122833C8.31225 -0.00122833 7.91489 0.163327 7.62188 0.45625L0.456258 7.62187C0.163335 7.91489 -0.0012207 8.31224 -0.0012207 8.72656C-0.0012207 9.14088 0.163335 9.53824 0.456258 9.83125L15.625 25L0.456258 40.1688C0.163335 40.4618 -0.0012207 40.8591 -0.0012207 41.2734C-0.0012207 41.6878 0.163335 42.0851 0.456258 42.3781L7.62188 49.5438C7.91489 49.8367 8.31225 50.0012 8.72657 50.0012C9.14089 50.0012 9.53825 49.8367 9.83126 49.5438L25 34.375L40.1688 49.5438C40.4618 49.8367 40.8591 50.0012 41.2734 50.0012C41.6878 50.0012 42.0851 49.8367 42.3781 49.5438L49.5438 42.3781C49.8367 42.0851 50.0012 41.6878 50.0012 41.2734C50.0012 40.8591 49.8367 40.4618 49.5438 40.1688Z" fill="white"/>
    </g>
    <defs>
        <clipPath id="clip0_3_2">
            <rect width="50" height="50" fill="white"/>
        </clipPath>
    </defs>
</svg>
